<svg width="219" height="35" viewBox="0 0 219 35" fill="none" xmlns="http://www.w3.org/2000/svg">
<path d="M9.54431 31.0851C8.84468 31.444 8.05081 30.815 8.19218 30.0121L9.69656 21.439L3.31112 15.3562C2.71481 14.7871 3.02475 13.7467 3.82406 13.6343L12.7017 12.3728L16.6602 4.53016C17.0172 3.82328 17.9833 3.82328 18.3404 4.53016L22.2989 12.3728L31.1765 13.6343C31.9758 13.7467 32.2857 14.7871 31.6876 15.3562L25.304 21.439L26.8084 30.0121C26.9497 30.815 26.1559 31.444 25.4562 31.0851L17.4976 26.9961L9.5425 31.0851H9.54431Z" fill="#AC5EFF"/>
<path d="M16.611 3.83975C17.091 2.60892 18.9075 2.60892 19.389 3.83975L22.494 12.2018C22.7115 12.756 23.265 13.125 23.883 13.125H31.5135C32.9235 13.125 33.5385 14.8312 32.43 15.6668L27 20.4166C26.7568 20.5984 26.579 20.8504 26.4922 21.1365C26.4055 21.4226 26.4141 21.7281 26.517 22.0091L28.5 30.1802C28.983 31.4927 27.42 32.62 26.238 31.812L18.8625 27.262C18.6099 27.0895 18.3087 26.9968 18 26.9968C17.6913 26.9968 17.3901 27.0895 17.1375 27.262L9.76199 31.812C8.58149 32.62 7.01699 31.4912 7.49999 30.1802L9.48299 22.0091C9.58586 21.7281 9.59453 21.4226 9.50776 21.1365C9.42098 20.8504 9.24323 20.5984 8.99999 20.4166L3.56999 15.6668C2.45999 14.8312 3.07799 13.125 4.48499 13.125H12.1155C12.4159 13.1259 12.7096 13.0382 12.9576 12.8734C13.2056 12.7085 13.3963 12.4743 13.5045 12.2018L16.6095 3.83975H16.611Z" stroke="#EAD6FF" stroke-width="4" stroke-linecap="round" stroke-linejoin="round"/>
<path d="M55.5443 31.0851C54.8447 31.444 54.0508 30.815 54.1922 30.0121L55.6966 21.439L49.3111 15.3562C48.7148 14.7871 49.0247 13.7467 49.8241 13.6343L58.7017 12.3728L62.6602 4.53016C63.0172 3.82328 63.9833 3.82328 64.3404 4.53016L68.2989 12.3728L77.1765 13.6343C77.9758 13.7467 78.2857 14.7871 77.6876 15.3562L71.304 21.439L72.8084 30.0121C72.9497 30.815 72.1559 31.444 71.4562 31.0851L63.4976 26.9961L55.5425 31.0851H55.5443Z" fill="#AC5EFF"/>
<path d="M62.611 3.83975C63.091 2.60892 64.9075 2.60892 65.389 3.83975L68.494 12.2018C68.7115 12.756 69.265 13.125 69.883 13.125H77.5135C78.9235 13.125 79.5385 14.8312 78.43 15.6668L73 20.4166C72.7568 20.5984 72.579 20.8504 72.4922 21.1365C72.4055 21.4226 72.4141 21.7281 72.517 22.0091L74.5 30.1802C74.983 31.4927 73.42 32.62 72.238 31.812L64.8625 27.262C64.6099 27.0895 64.3087 26.9968 64 26.9968C63.6913 26.9968 63.3901 27.0895 63.1375 27.262L55.762 31.812C54.5815 32.62 53.017 31.4912 53.5 30.1802L55.483 22.0091C55.5859 21.7281 55.5945 21.4226 55.5078 21.1365C55.421 20.8504 55.2432 20.5984 55 20.4166L49.57 15.6668C48.46 14.8312 49.078 13.125 50.485 13.125H58.1155C58.4159 13.1259 58.7096 13.0382 58.9576 12.8734C59.2056 12.7085 59.3963 12.4743 59.5045 12.2018L62.6095 3.83975H62.611Z" stroke="#EAD6FF" stroke-width="4" stroke-linecap="round" stroke-linejoin="round"/>
<path d="M101.544 31.0851C100.845 31.444 100.051 30.815 100.192 30.0121L101.697 21.439L95.3111 15.3562C94.7148 14.7871 95.0247 13.7467 95.8241 13.6343L104.702 12.3728L108.66 4.53016C109.017 3.82328 109.983 3.82328 110.34 4.53016L114.299 12.3728L123.176 13.6343C123.976 13.7467 124.286 14.7871 123.688 15.3562L117.304 21.439L118.808 30.0121C118.95 30.815 118.156 31.444 117.456 31.0851L109.498 26.9961L101.542 31.0851H101.544Z" fill="#AC5EFF"/>
<path d="M108.15 3.83975C108.616 2.60892 110.382 2.60892 110.85 3.83975L113.869 12.2018C114.081 12.756 114.619 13.125 115.22 13.125H122.638C124.009 13.125 124.607 14.8312 123.529 15.6668L118.25 20.4166C118.014 20.5984 117.841 20.8504 117.756 21.1365C117.672 21.4226 117.68 21.7281 117.78 22.0091L119.708 30.1802C120.178 31.4927 118.658 32.62 117.509 31.812L110.339 27.262C110.093 27.0895 109.8 26.9968 109.5 26.9968C109.2 26.9968 108.907 27.0895 108.661 27.262L101.491 31.812C100.343 32.62 98.8221 31.4912 99.2917 30.1802L101.22 22.0091C101.32 21.7281 101.328 21.4226 101.244 21.1365C101.159 20.8504 100.986 20.5984 100.75 20.4166L95.4709 15.6668C94.3917 14.8312 94.9925 13.125 96.3604 13.125H103.779C104.071 13.1259 104.357 13.0382 104.598 12.8734C104.839 12.7085 105.024 12.4743 105.129 12.2018L108.148 3.83975H108.15Z" stroke="#EAD6FF" stroke-width="4" stroke-linecap="round" stroke-linejoin="round"/>
<path d="M146.544 31.0851C145.845 31.444 145.051 30.815 145.192 30.0121L146.697 21.439L140.311 15.3562C139.715 14.7871 140.025 13.7467 140.824 13.6343L149.702 12.3728L153.66 4.53016C154.017 3.82328 154.983 3.82328 155.34 4.53016L159.299 12.3728L168.176 13.6343C168.976 13.7467 169.286 14.7871 168.688 15.3562L162.304 21.439L163.808 30.0121C163.95 30.815 163.156 31.444 162.456 31.0851L154.498 26.9961L146.542 31.0851H146.544Z" fill="#AC5EFF"/>
<path d="M153.611 3.83975C154.091 2.60892 155.908 2.60892 156.389 3.83975L159.494 12.2018C159.712 12.756 160.265 13.125 160.883 13.125H168.514C169.924 13.125 170.539 14.8312 169.43 15.6668L164 20.4166C163.757 20.5984 163.579 20.8504 163.492 21.1365C163.405 21.4226 163.414 21.7281 163.517 22.0091L165.5 30.1802C165.983 31.4927 164.42 32.62 163.238 31.812L155.863 27.262C155.61 27.0895 155.309 26.9968 155 26.9968C154.691 26.9968 154.39 27.0895 154.138 27.262L146.762 31.812C145.582 32.62 144.017 31.4912 144.5 30.1802L146.483 22.0091C146.586 21.7281 146.595 21.4226 146.508 21.1365C146.421 20.8504 146.243 20.5984 146 20.4166L140.57 15.6668C139.46 14.8312 140.078 13.125 141.485 13.125H149.116C149.416 13.1259 149.71 13.0382 149.958 12.8734C150.206 12.7085 150.396 12.4743 150.505 12.2018L153.61 3.83975H153.611Z" stroke="#EAD6FF" stroke-width="4" stroke-linecap="round" stroke-linejoin="round"/>
<path d="M199.611 3.83975C200.091 2.60892 201.908 2.60892 202.389 3.83975L205.494 12.2018C205.712 12.756 206.265 13.125 206.883 13.125H214.514C215.924 13.125 216.539 14.8312 215.43 15.6668L210 20.4166C209.757 20.5984 209.579 20.8504 209.492 21.1365C209.405 21.4226 209.414 21.7281 209.517 22.0091L211.5 30.1802C211.983 31.4927 210.42 32.62 209.238 31.812L201.863 27.262C201.61 27.0895 201.309 26.9968 201 26.9968C200.691 26.9968 200.39 27.0895 200.138 27.262L192.762 31.812C191.582 32.62 190.017 31.4912 190.5 30.1802L192.483 22.0091C192.586 21.7281 192.595 21.4226 192.508 21.1365C192.421 20.8504 192.243 20.5984 192 20.4166L186.57 15.6668C185.46 14.8312 186.078 13.125 187.485 13.125H195.116C195.416 13.1259 195.71 13.0382 195.958 12.8734C196.206 12.7085 196.396 12.4743 196.505 12.2018L199.61 3.83975H199.611Z" stroke="#EAD6FF" stroke-width="4" stroke-linecap="round" stroke-linejoin="round"/>
<path d="M192.544 31.0851C191.845 31.444 191.051 30.815 191.192 30.0121L192.697 21.439L186.311 15.3562C185.715 14.7871 186.025 13.7467 186.824 13.6343L195.702 12.3728L199.66 4.53016C200.017 3.82328 200.983 3.82328 201.34 4.53016L205.299 12.3728L214.176 13.6343C214.976 13.7467 215.286 14.7871 214.688 15.3562L208.304 21.439L209.808 30.0121C209.95 30.815 209.156 31.444 208.456 31.0851L200.498 26.9961L192.542 31.0851H192.544Z" fill="#AC5EFF"/>
<path d="M199.611 3.83975C200.091 2.60892 201.908 2.60892 202.389 3.83975L205.494 12.2018C205.712 12.756 206.265 13.125 206.883 13.125H214.514C215.924 13.125 216.539 14.8312 215.43 15.6668L210 20.4166C209.757 20.5984 209.579 20.8504 209.492 21.1365C209.405 21.4226 209.414 21.7281 209.517 22.0091L211.5 30.1802C211.983 31.4927 210.42 32.62 209.238 31.812L201.863 27.262C201.61 27.0895 201.309 26.9968 201 26.9968C200.691 26.9968 200.39 27.0895 200.138 27.262L192.762 31.812C191.582 32.62 190.017 31.4912 190.5 30.1802L192.483 22.0091C192.586 21.7281 192.595 21.4226 192.508 21.1365C192.421 20.8504 192.243 20.5984 192 20.4166L186.57 15.6668C185.46 14.8312 186.078 13.125 187.485 13.125H195.116C195.416 13.1259 195.71 13.0382 195.958 12.8734C196.206 12.7085 196.396 12.4743 196.505 12.2018L199.61 3.83975H199.611Z" stroke="#EAD6FF" stroke-width="4" stroke-linecap="round" stroke-linejoin="round"/>
</svg>
